<?xml version="1.0" encoding="utf-8"?>
<!-- Generator: Adobe Illustrator 23.0.4, SVG Export Plug-In . SVG Version: 6.00 Build 0)  -->
<svg version="1.1" id="Layer_1" xmlns="http://www.w3.org/2000/svg" xmlns:xlink="http://www.w3.org/1999/xlink" x="0px" y="0px"
	 viewBox="0 0 141.12 91.68" style="enable-background:new 0 0 141.12 91.68;" xml:space="preserve">
<style type="text/css">
	.st0{fill:#6E7175;}
	.st1{clip-path:url(#SVGID_5_);fill:url(#SVGID_6_);}
</style>
<g>
	<g>
		<path class="st0" d="M31.65,64.12h4.17v0.82h-3.3v1.93h3.07v0.82h-3.07v2.07h3.46v0.82h-4.34V64.12z"/>
		<path class="st0" d="M41.09,64.12h0.79l2.77,6.47h-1.02l-0.65-1.6H39.9l-0.64,1.6h-1.02L41.09,64.12z M42.66,68.22l-1.21-2.97
			h-0.02l-1.22,2.97H42.66z"/>
		<path class="st0" d="M47.51,69.24c0.16,0.24,0.36,0.41,0.61,0.52c0.25,0.11,0.5,0.17,0.76,0.17c0.15,0,0.3-0.02,0.45-0.07
			c0.15-0.05,0.29-0.11,0.42-0.21s0.23-0.2,0.31-0.34s0.12-0.29,0.12-0.47c0-0.25-0.08-0.44-0.24-0.57s-0.35-0.24-0.59-0.33
			s-0.49-0.17-0.77-0.26s-0.53-0.2-0.77-0.34c-0.23-0.15-0.43-0.34-0.59-0.59s-0.24-0.58-0.24-1c0-0.19,0.04-0.39,0.12-0.6
			c0.08-0.21,0.21-0.41,0.39-0.58c0.18-0.18,0.4-0.32,0.68-0.44c0.28-0.12,0.61-0.18,1-0.18c0.35,0,0.69,0.05,1.01,0.15
			c0.32,0.1,0.61,0.3,0.85,0.59l-0.71,0.65c-0.11-0.17-0.26-0.31-0.47-0.41s-0.43-0.16-0.68-0.16c-0.24,0-0.45,0.03-0.61,0.1
			c-0.16,0.06-0.29,0.15-0.39,0.25c-0.1,0.1-0.17,0.21-0.21,0.32c-0.04,0.12-0.06,0.22-0.06,0.32c0,0.27,0.08,0.48,0.24,0.63
			c0.16,0.15,0.35,0.26,0.59,0.36s0.49,0.17,0.77,0.25s0.53,0.18,0.77,0.31c0.23,0.13,0.43,0.31,0.59,0.53s0.24,0.53,0.24,0.92
			c0,0.31-0.06,0.59-0.18,0.84c-0.12,0.25-0.28,0.46-0.48,0.63c-0.2,0.17-0.44,0.3-0.71,0.39s-0.57,0.14-0.88,0.14
			c-0.41,0-0.81-0.07-1.18-0.22c-0.37-0.15-0.67-0.37-0.89-0.68L47.51,69.24z"/>
		<path class="st0" d="M55.57,64.95h-2.08v-0.82h5.04v0.82h-2.08v5.64h-0.88V64.95z"/>
		<path class="st0" d="M67.68,64.12h0.79l2.77,6.47h-1.02l-0.65-1.6H66.5l-0.64,1.6h-1.02L67.68,64.12z M69.25,68.22l-1.21-2.97
			h-0.02l-1.22,2.97H69.25z"/>
		<path class="st0" d="M73.91,64.12h1.15l3.56,5.32h0.02v-5.32h0.88v6.47h-1.11l-3.6-5.32h-0.02v5.32h-0.88V64.12z"/>
		<path class="st0" d="M88.52,66.97v3.19c-0.16,0.1-0.34,0.18-0.54,0.26c-0.2,0.07-0.41,0.14-0.63,0.19s-0.44,0.09-0.66,0.11
			c-0.22,0.02-0.43,0.04-0.63,0.04c-0.55,0-1.04-0.09-1.47-0.27c-0.43-0.18-0.79-0.43-1.09-0.74c-0.29-0.31-0.52-0.67-0.68-1.08
			s-0.23-0.84-0.23-1.3c0-0.48,0.08-0.93,0.25-1.34c0.17-0.41,0.4-0.77,0.69-1.08c0.29-0.3,0.65-0.54,1.06-0.72
			c0.41-0.17,0.87-0.26,1.36-0.26c0.6,0,1.08,0.07,1.46,0.22c0.38,0.15,0.69,0.35,0.95,0.62l-0.62,0.67
			c-0.27-0.26-0.55-0.43-0.85-0.53c-0.3-0.1-0.61-0.15-0.94-0.15c-0.37,0-0.71,0.07-1,0.21c-0.3,0.14-0.55,0.32-0.77,0.55
			c-0.21,0.23-0.38,0.5-0.49,0.82c-0.12,0.31-0.17,0.65-0.17,1c0,0.37,0.06,0.7,0.19,1.02c0.13,0.31,0.3,0.59,0.53,0.82
			c0.23,0.23,0.49,0.41,0.79,0.54s0.64,0.2,1,0.2c0.31,0,0.6-0.03,0.88-0.09c0.28-0.06,0.51-0.14,0.71-0.25v-1.8h-1.43v-0.82H88.52z
			"/>
		<path class="st0" d="M91.94,64.12h0.88v5.64h2.97v0.82h-3.84V64.12z"/>
		<path class="st0" d="M98.51,64.12h0.88v6.47h-0.88V64.12z"/>
		<path class="st0" d="M104.9,64.12h0.79l2.77,6.47h-1.02l-0.65-1.6h-3.08l-0.64,1.6h-1.02L104.9,64.12z M106.47,68.22l-1.21-2.97
			h-0.02l-1.22,2.97H106.47z"/>
	</g>
	<g>
		<g>
			<g>
				<defs>
					<path id="SVGID_1_" d="M49.54,17.36v12.81c-2.89-3.72-7.4-6.12-12.46-6.12c-8.7,0-15.78,7.08-15.78,15.78
						S28.39,55.6,37.09,55.6c7.03,0,13-4.63,15.03-11l-1.9-3.3c-0.74,6.59-6.34,11.73-13.13,11.73c-7.29,0-13.21-5.93-13.21-13.21
						c0-7.29,5.93-13.21,13.21-13.21c4.77,0,8.96,2.54,11.28,6.34l0,0l0.38,0.66c0.01,0.01,0.01,0.02,0.02,0.04L49.54,35v0.18h0.1
						l3.19,5.52v0l3.98,6.89l0.02,0.02c2.72,4.77,7.84,8,13.72,8c0.85,0,1.68-0.07,2.49-0.2v0.01c0.06-0.01,0.13-0.02,0.19-0.03
						c0,0,0.01,0,0.01,0c5.84-1,10.59-5.22,12.36-10.77l-1.9-3.3c-0.32,2.87-1.57,5.47-3.43,7.49v-0.02
						c-2.42,2.62-5.88,4.27-9.72,4.27c-4.76,0-8.94-2.53-11.27-6.32l-0.37-0.63c-0.02-0.04-0.04-0.09-0.07-0.13l-4.05-7.01
						c0,0,0,0.01,0,0.01l-2.68-4.65V17.36H49.54z M117.2,17.36v13.79c-2.83-4.27-7.67-7.09-13.16-7.09c-7.03,0-13,4.63-15.03,10.99
						l1.9,3.3c0.74-6.59,6.34-11.73,13.13-11.73c7.29,0,13.21,5.93,13.21,13.21c0,7.29-5.93,13.21-13.21,13.21
						c-4.76,0-8.94-2.53-11.27-6.32l-0.37-0.63c-0.02-0.04-0.04-0.09-0.07-0.13l-4.05-7.01c0,0,0,0.01,0,0.01l-2.34-4.05V17.36
						h-2.57v13.27c-2.12-2.94-5.23-5.13-8.84-6.06c-0.01,0-0.01,0-0.02,0c-0.33-0.09-0.67-0.16-1.01-0.22
						c-0.11-0.02-0.21-0.04-0.32-0.06c-0.05-0.01-0.09-0.02-0.14-0.03v0c-0.81-0.13-1.64-0.2-2.49-0.2c-7.03,0-13,4.63-15.03,10.99
						l1.9,3.3c0.74-6.59,6.34-11.73,13.13-11.73c0.94,0,1.85,0.1,2.74,0.29c0.04,0.01,0.08,0.02,0.13,0.03
						c0.2,0.05,0.4,0.09,0.59,0.14c0.01,0,0.02,0.01,0.03,0.01c2.43,0.66,4.57,2,6.23,3.8v-0.02c0.59,0.64,1.13,1.34,1.58,2.09l0,0
						l0.38,0.66c0.01,0.01,0.01,0.02,0.02,0.04l4.08,7.06v0l3.98,6.89l0.02,0.02c2.72,4.77,7.85,8,13.72,8
						c8.7,0,15.78-7.08,15.78-15.78c0-0.36-0.02-0.72-0.04-1.07v-21.4H117.2z"/>
				</defs>
				<clipPath id="SVGID_2_">
					<use xlink:href="#SVGID_1_"  style="overflow:visible;"/>
				</clipPath>
			</g>
			<g>
				<defs>
					<path id="SVGID_3_" d="M49.54,17.36v12.81c-2.89-3.72-7.4-6.12-12.46-6.12c-8.7,0-15.78,7.08-15.78,15.78
						S28.39,55.6,37.09,55.6c7.03,0,13-4.63,15.03-11l-1.9-3.3c-0.74,6.59-6.34,11.73-13.13,11.73c-7.29,0-13.21-5.93-13.21-13.21
						c0-7.29,5.93-13.21,13.21-13.21c4.77,0,8.96,2.54,11.28,6.34l0,0l0.38,0.66c0.01,0.01,0.01,0.02,0.02,0.04L49.54,35v0.18h0.1
						l3.19,5.52v0l3.98,6.89l0.02,0.02c2.72,4.77,7.84,8,13.72,8c0.85,0,1.68-0.07,2.49-0.2v0.01c0.06-0.01,0.13-0.02,0.19-0.03
						c0,0,0.01,0,0.01,0c5.84-1,10.59-5.22,12.36-10.77l-1.9-3.3c-0.32,2.87-1.57,5.47-3.43,7.49v-0.02
						c-2.42,2.62-5.88,4.27-9.72,4.27c-4.76,0-8.94-2.53-11.27-6.32l-0.37-0.63c-0.02-0.04-0.04-0.09-0.07-0.13l-4.05-7.01
						c0,0,0,0.01,0,0.01l-2.68-4.65V17.36H49.54z M117.2,17.36v13.79c-2.83-4.27-7.67-7.09-13.16-7.09c-7.03,0-13,4.63-15.03,10.99
						l1.9,3.3c0.74-6.59,6.34-11.73,13.13-11.73c7.29,0,13.21,5.93,13.21,13.21c0,7.29-5.93,13.21-13.21,13.21
						c-4.76,0-8.94-2.53-11.27-6.32l-0.37-0.63c-0.02-0.04-0.04-0.09-0.07-0.13l-4.05-7.01c0,0,0,0.01,0,0.01l-2.34-4.05V17.36
						h-2.57v13.27c-2.12-2.94-5.23-5.13-8.84-6.06c-0.01,0-0.01,0-0.02,0c-0.33-0.09-0.67-0.16-1.01-0.22
						c-0.11-0.02-0.21-0.04-0.32-0.06c-0.05-0.01-0.09-0.02-0.14-0.03v0c-0.81-0.13-1.64-0.2-2.49-0.2c-7.03,0-13,4.63-15.03,10.99
						l1.9,3.3c0.74-6.59,6.34-11.73,13.13-11.73c0.94,0,1.85,0.1,2.74,0.29c0.04,0.01,0.08,0.02,0.13,0.03
						c0.2,0.05,0.4,0.09,0.59,0.14c0.01,0,0.02,0.01,0.03,0.01c2.43,0.66,4.57,2,6.23,3.8v-0.02c0.59,0.64,1.13,1.34,1.58,2.09l0,0
						l0.38,0.66c0.01,0.01,0.01,0.02,0.02,0.04l4.08,7.06v0l3.98,6.89l0.02,0.02c2.72,4.77,7.85,8,13.72,8
						c8.7,0,15.78-7.08,15.78-15.78c0-0.36-0.02-0.72-0.04-1.07v-21.4H117.2z"/>
				</defs>
				<linearGradient id="SVGID_4_" gradientUnits="userSpaceOnUse" x1="31.7954" y1="62.2092" x2="117.1973" y2="12.9024">
					<stop  offset="0" style="stop-color:#C84667"/>
					<stop  offset="1" style="stop-color:#574293"/>
				</linearGradient>
				<use xlink:href="#SVGID_3_"  style="overflow:visible;fill:url(#SVGID_4_);"/>
				<clipPath id="SVGID_5_">
					<use xlink:href="#SVGID_3_"  style="overflow:visible;"/>
				</clipPath>
				<linearGradient id="SVGID_6_" gradientUnits="userSpaceOnUse" x1="25.3429" y1="62.5878" x2="115.778" y2="10.3751">
					<stop  offset="0" style="stop-color:#C84667"/>
					<stop  offset="1" style="stop-color:#574293"/>
				</linearGradient>
				<rect x="21.31" y="17.36" class="st1" width="98.5" height="38.25"/>
			</g>
			<g>
				<defs>
					<path id="SVGID_7_" d="M49.54,17.36v12.81c-2.89-3.72-7.4-6.12-12.46-6.12c-8.7,0-15.78,7.08-15.78,15.78
						S28.39,55.6,37.09,55.6c7.03,0,13-4.63,15.03-11l-1.9-3.3c-0.74,6.59-6.34,11.73-13.13,11.73c-7.29,0-13.21-5.93-13.21-13.21
						c0-7.29,5.93-13.21,13.21-13.21c4.77,0,8.96,2.54,11.28,6.34l0,0l0.38,0.66c0.01,0.01,0.01,0.02,0.02,0.04L49.54,35v0.18h0.1
						l3.19,5.52v0l3.98,6.89l0.02,0.02c2.72,4.77,7.84,8,13.72,8c0.85,0,1.68-0.07,2.49-0.2v0.01c0.06-0.01,0.13-0.02,0.19-0.03
						c0,0,0.01,0,0.01,0c5.84-1,10.59-5.22,12.36-10.77l-1.9-3.3c-0.32,2.87-1.57,5.47-3.43,7.49v-0.02
						c-2.42,2.62-5.88,4.27-9.72,4.27c-4.76,0-8.94-2.53-11.27-6.32l-0.37-0.63c-0.02-0.04-0.04-0.09-0.07-0.13l-4.05-7.01
						c0,0,0,0.01,0,0.01l-2.68-4.65V17.36H49.54z M117.2,17.36v13.79c-2.83-4.27-7.67-7.09-13.16-7.09c-7.03,0-13,4.63-15.03,10.99
						l1.9,3.3c0.74-6.59,6.34-11.73,13.13-11.73c7.29,0,13.21,5.93,13.21,13.21c0,7.29-5.93,13.21-13.21,13.21
						c-4.76,0-8.94-2.53-11.27-6.32l-0.37-0.63c-0.02-0.04-0.04-0.09-0.07-0.13l-4.05-7.01c0,0,0,0.01,0,0.01l-2.34-4.05V17.36
						h-2.57v13.27c-2.12-2.94-5.23-5.13-8.84-6.06c-0.01,0-0.01,0-0.02,0c-0.33-0.09-0.67-0.16-1.01-0.22
						c-0.11-0.02-0.21-0.04-0.32-0.06c-0.05-0.01-0.09-0.02-0.14-0.03v0c-0.81-0.13-1.64-0.2-2.49-0.2c-7.03,0-13,4.63-15.03,10.99
						l1.9,3.3c0.74-6.59,6.34-11.73,13.13-11.73c0.94,0,1.85,0.1,2.74,0.29c0.04,0.01,0.08,0.02,0.13,0.03
						c0.2,0.05,0.4,0.09,0.59,0.14c0.01,0,0.02,0.01,0.03,0.01c2.43,0.66,4.57,2,6.23,3.8v-0.02c0.59,0.64,1.13,1.34,1.58,2.09l0,0
						l0.38,0.66c0.01,0.01,0.01,0.02,0.02,0.04l4.08,7.06v0l3.98,6.89l0.02,0.02c2.72,4.77,7.85,8,13.72,8
						c8.7,0,15.78-7.08,15.78-15.78c0-0.36-0.02-0.72-0.04-1.07v-21.4H117.2z"/>
				</defs>
				<clipPath id="SVGID_8_">
					<use xlink:href="#SVGID_7_"  style="overflow:visible;"/>
				</clipPath>
			</g>
		</g>
	</g>
</g>
</svg>
